<svg viewBox="0 0 450 523" aria-hidden="true" class="logomark h-7 w-auto md:h-8 sm:w-auto" xmlns="http://www.w3.org/2000/svg"><g id="c"><path d="M239.71,78.73c-47.7-7.63-86.12,9.22-114.17,49.53-41.3,59.34-43.11,188.32-3.21,248.07,13.14,19.68,30.11,37.41,51.8,47.56,62.82,29.41,128.9-10.09,154.29-69.26,13.3-30.98,17.46-64.71,17.94-98.17.03-1.75.04-3.5.04-5.25.03-32.34-4.04-65.08-16.4-95.15-16.88-41.07-45.3-70.14-90.29-77.33Zm-21.65,69.22c-25.85,0-46.81-9.23-46.81-20.62s20.96-20.62,46.81-20.62,46.81,9.23,46.81,20.62-20.96,20.62-46.81,20.62Z" fill="#bfff00" stroke-width="0"></path><path d="M248.72,1.99C163.91-7.74,90.3,17.55,44.38,93.17-11.62,185.4-11.62,284.85,27.57,382.44c60.35,150.31,261.85,175.35,359.5,46.01,38.31-50.74,49.68-110.69,50.44-185.58,1.02-23.78-4.36-59.22-15.39-93.57C394.9,64.49,337.99,12.23,248.72,1.99Zm97.65,254.48c-.48,33.46-4.65,67.19-17.94,98.17-25.39,59.17-91.47,98.67-154.29,69.26-21.68-10.15-38.66-27.88-51.8-47.56-39.9-59.76-38.09-188.73,3.21-248.07,28.05-40.31,66.47-57.15,114.17-49.53,44.99,7.19,73.41,36.27,90.29,77.33,12.36,30.08,16.43,62.81,16.4,95.15,0,1.75-.02,3.5-.04,5.25Z" fill="#303601" stroke-width="0"></path><ellipse cx="218.07" cy="127.33" rx="46.81" ry="20.62" fill="#000000" stroke-width="0"></ellipse></g></svg>